<svg width="140" height="140" viewBox="0 0 140 140" fill="none" xmlns="http://www.w3.org/2000/svg">
<rect opacity="0.01" width="140" height="140" fill="white"/>
<ellipse cx="70.0001" cy="125.616" rx="57.5342" ry="4.79452" fill="#F2F2F2"/>
<path d="M55.8828 16.6134C56.0537 14.7967 55.4547 12.992 54.2358 11.6513C53.0169 10.3106 51.2934 9.56082 49.4971 9.58967H109.49C111.287 9.56082 113.01 10.3106 114.229 11.6513C115.448 12.992 116.047 14.7967 115.876 16.6134H55.8828Z" fill="#E7E7E7" stroke="#E7E7E7" stroke-width="1.4" stroke-linejoin="round"/>
<path d="M49.5119 9.58936C45.6258 9.65012 42.4117 12.6809 42.0636 16.613L35.9168 98.4545C35.5712 102.386 32.3587 105.417 28.4736 105.478H88.4667C92.3529 105.417 95.5669 102.387 95.915 98.4545L102.062 16.613C102.407 12.6818 105.62 9.65037 109.505 9.58936L49.5119 9.58936Z" fill="white" stroke="#E7E7E7" stroke-width="1.4"/>
<path d="M82.0765 98.4546C81.9055 100.271 82.5045 102.076 83.7235 103.417C84.9424 104.757 86.6658 105.507 88.4622 105.478H28.4691C26.6727 105.507 24.9493 104.757 23.7304 103.417C22.5114 102.076 21.9124 100.271 22.0834 98.4546H82.0765Z" fill="#E7E7E7"/>
<path d="M46.9604 96.8384C47.1892 93.8481 46.2638 91.4312 43.3252 91.4312H89.5199C92.4585 91.4312 94.6701 94.1632 93.1601 96.8384H46.9604Z" fill="#E0E0E0"/>
<path d="M82.0771 98.4547C82.4154 94.5173 85.6299 91.4773 89.5203 91.4155H29.5272C25.6421 91.4765 22.4297 94.5079 22.084 98.4392L82.0771 98.4547Z" fill="#E7E7E7"/>
<rect x="43.0029" y="79.8818" width="47.4522" height="4.13158" rx="2.06579" fill="#E7E7E7"/>
<rect x="43.6807" y="70.9297" width="47.4522" height="4.13158" rx="2.06579" fill="#E7E7E7"/>
<rect x="44.3584" y="61.978" width="47.4522" height="4.13158" rx="2.06579" fill="#E7E7E7"/>
<rect x="45.0371" y="53.0264" width="47.4522" height="4.13158" rx="2.06579" fill="#E7E7E7"/>
<rect x="45.7148" y="44.0742" width="47.4522" height="4.13158" rx="2.06579" fill="#E7E7E7"/>
<rect x="46.3926" y="35.123" width="47.4522" height="4.13158" rx="2.06579" fill="#E7E7E7"/>
<rect x="47.0703" y="26.1709" width="47.4522" height="4.13158" rx="2.06579" fill="#E7E7E7"/>
</svg>
