<svg width="137" height="121" viewBox="0 0 137 121" fill="none" xmlns="http://www.w3.org/2000/svg">
<g filter="url(#filter0_d_287_3613)">
<path fill-rule="evenodd" clip-rule="evenodd" d="M43.6369 21.6689C43.6889 18.4918 46.3066 15.9531 49.4838 15.9985L54.6236 16.072L69.9675 16.2911C72.705 16.3303 74.8878 18.5811 74.843 21.3185C74.8372 21.6715 75.1187 21.9617 75.4718 21.9668C75.8248 21.9718 76.1156 21.6897 76.1214 21.3367C76.1778 17.8933 73.4319 15.062 69.9884 15.0128L54.6446 14.7936L49.5047 14.7202C45.6215 14.6647 42.4221 17.7676 42.3585 21.6506L41.866 51.7361L14.9485 51.5219C11.0824 51.4911 7.91009 54.5871 7.84681 58.4528L7.61757 72.4573C7.554 76.3403 10.6504 79.5331 14.5336 79.5886L41.4038 79.9724L41.0163 103.646C40.9527 107.529 44.0491 110.722 47.9323 110.778L57.7761 110.918L67.62 111.059C71.5031 111.114 74.7026 108.012 74.7661 104.129L75.1537 80.4546L104.875 80.8792C108.758 80.9346 111.958 77.8318 112.021 73.9487L112.253 59.7719C112.317 55.8889 109.221 52.6961 105.337 52.6406L100.344 52.5693C99.9913 52.5643 99.7004 52.8463 99.6947 53.1993C99.6889 53.5523 99.9704 53.8426 100.323 53.8476L105.316 53.919C108.494 53.9644 111.027 56.5766 110.975 59.7537L110.743 73.9305C110.691 77.1075 108.073 79.6462 104.896 79.6008L74.5874 79.1678C74.2764 79.1634 74.0136 79.3818 73.9515 79.6752C73.9093 79.7588 73.8848 79.853 73.8832 79.9529L73.4878 104.11C73.4358 107.287 70.818 109.826 67.6409 109.781L57.7971 109.64L47.9532 109.499C44.7761 109.454 42.2427 106.842 42.2947 103.665L42.6901 79.5073C42.6959 79.1543 42.4144 78.8641 42.0614 78.859C42.0281 78.8585 41.9953 78.8606 41.9633 78.8651C41.8519 78.762 41.7033 78.6981 41.5393 78.6957L14.5545 78.3102C11.3774 78.2648 8.84394 75.6526 8.89595 72.4755L9.12519 58.471C9.17697 55.3082 11.7725 52.7751 14.9357 52.8003L42.1937 53.0172C42.5467 53.02 42.8358 52.7361 42.8393 52.3831C42.8396 52.3626 42.8388 52.3424 42.8371 52.3224C43.018 52.2117 43.1402 52.0136 43.1439 51.7861L43.6369 21.6689Z" fill="#1A87DD"/>
<path d="M42.3585 21.6506L44.445 21.6804L42.3585 21.6506ZM41.866 51.7361L41.8451 53.8226L43.9186 53.8391L43.9525 51.7659L41.866 51.7361ZM14.9485 51.5219L14.9695 49.4353L14.9695 49.4353L14.9485 51.5219ZM7.84681 58.4528L9.93328 58.4826L7.84681 58.4528ZM7.61757 72.4573L5.5311 72.4275L7.61757 72.4573ZM41.4038 79.9724L43.4903 80.0022L43.5244 77.9158L41.438 77.886L41.4038 79.9724ZM41.0163 103.646L43.1028 103.676L41.0163 103.646ZM74.7661 104.129L72.6797 104.099L74.7661 104.129ZM75.1537 80.4546L75.1878 78.3682L73.1014 78.3384L73.0672 80.4248L75.1537 80.4546ZM112.021 73.9487L114.108 73.9785L112.021 73.9487ZM112.253 59.7719L110.167 59.7421L112.253 59.7719ZM104.896 79.6008L104.93 77.5144L104.896 79.6008ZM74.5874 79.1678L74.5532 81.2542L74.5874 79.1678ZM73.9515 79.6752L75.8138 80.6128L75.9366 80.3696L75.993 80.1031L73.9515 79.6752ZM73.8832 79.9529L71.7967 79.9231L73.8832 79.9529ZM73.4878 104.11L75.5742 104.14L73.4878 104.11ZM42.2947 103.665L40.2082 103.635L42.2947 103.665ZM42.6901 79.5073L40.6037 79.4775L42.6901 79.5073ZM41.9633 78.8651L40.5446 80.3982L41.2685 81.0678L42.2465 80.9318L41.9633 78.8651ZM8.89595 72.4755L6.80948 72.4457L8.89595 72.4755ZM9.12519 58.471L11.2117 58.5008L9.12519 58.471ZM14.9357 52.8003L14.9147 54.8868L14.9147 54.8868L14.9357 52.8003ZM42.1937 53.0172L42.1727 55.1038L42.1727 55.1038L42.1937 53.0172ZM42.8393 52.3831L44.926 52.3997L44.926 52.3997L42.8393 52.3831ZM42.8371 52.3224L41.7505 50.5432L40.6496 51.2169L40.7577 52.5016L42.8371 52.3224ZM49.5179 13.9121C45.1885 13.8503 41.6213 17.3097 41.5504 21.6391L45.7234 21.6987C45.7565 19.6739 47.4248 18.056 49.4496 18.0849L49.5179 13.9121ZM54.6578 13.9856L49.5179 13.9121L49.4496 18.0849L54.5895 18.1583L54.6578 13.9856ZM70.0016 14.2048L54.6578 13.9856L54.5895 18.1583L69.9333 18.3775L70.0016 14.2048ZM76.9295 21.3483C76.9932 17.4586 73.8915 14.2603 70.0016 14.2048L69.9333 18.3775C71.5185 18.4002 72.7825 19.7035 72.7566 21.2887L76.9295 21.3483ZM75.5059 19.8804C76.3052 19.8918 76.9426 20.549 76.9295 21.3483L72.7566 21.2887C72.7319 22.7939 73.9323 24.0317 75.4376 24.0532L75.5059 19.8804ZM74.0349 21.3069C74.048 20.5076 74.7066 19.8689 75.5059 19.8804L75.4376 24.0532C76.9429 24.0747 78.1832 22.8718 78.2079 21.3665L74.0349 21.3069ZM69.9543 17.0992C72.2455 17.1319 74.0724 19.0158 74.0349 21.3069L78.2079 21.3665C78.2831 16.7708 74.6184 12.9921 70.0226 12.9264L69.9543 17.0992ZM54.6104 16.88L69.9543 17.0992L70.0226 12.9264L54.6787 12.7072L54.6104 16.88ZM49.4705 16.8066L54.6104 16.88L54.6787 12.7072L49.5389 12.6338L49.4705 16.8066ZM44.445 21.6804C44.4897 18.9497 46.7397 16.7676 49.4705 16.8066L49.5389 12.6338C44.5034 12.5619 40.3545 16.5855 40.2721 21.6208L44.445 21.6804ZM43.9525 51.7659L44.445 21.6804L40.2721 21.6208L39.7796 51.7063L43.9525 51.7659ZM14.9276 53.6084L41.8451 53.8226L41.887 49.6495L14.9695 49.4353L14.9276 53.6084ZM9.93328 58.4826C9.97778 55.764 12.2087 53.5868 14.9276 53.6084L14.9695 49.4353C9.95607 49.3954 5.84241 53.4101 5.76035 58.423L9.93328 58.4826ZM9.70403 72.4871L9.93328 58.4826L5.76035 58.423L5.5311 72.4275L9.70403 72.4871ZM14.5677 77.5022C11.8369 77.4632 9.65933 75.2178 9.70403 72.4871L5.5311 72.4275C5.44868 77.4628 9.46392 81.603 14.4994 81.675L14.5677 77.5022ZM41.438 77.886L14.5677 77.5022L14.4994 81.675L41.3697 82.0588L41.438 77.886ZM43.1028 103.676L43.4903 80.0022L39.3174 79.9426L38.9298 103.617L43.1028 103.676ZM47.9664 108.691C45.2356 108.652 43.0581 106.407 43.1028 103.676L38.9298 103.617C38.8474 108.652 42.8627 112.792 47.8981 112.864L47.9664 108.691ZM57.8103 108.832L47.9664 108.691L47.8981 112.864L57.742 113.005L57.8103 108.832ZM67.6541 108.973L57.8103 108.832L57.742 113.005L67.5858 113.145L67.6541 108.973ZM72.6797 104.099C72.635 106.829 70.385 109.012 67.6541 108.973L67.5858 113.145C72.6213 113.217 76.7702 109.194 76.8526 104.158L72.6797 104.099ZM73.0672 80.4248L72.6797 104.099L76.8526 104.158L77.2401 80.4844L73.0672 80.4248ZM104.909 78.7928L75.1878 78.3682L75.1195 82.541L104.841 82.9656L104.909 78.7928ZM109.935 73.9189C109.89 76.6497 107.64 78.8318 104.909 78.7928L104.841 82.9656C109.876 83.0375 114.025 79.0139 114.108 73.9785L109.935 73.9189ZM110.167 59.7421L109.935 73.9189L114.108 73.9785L114.34 59.8017L110.167 59.7421ZM105.303 54.727C108.034 54.766 110.212 57.0114 110.167 59.7421L114.34 59.8017C114.422 54.7664 110.407 50.6262 105.372 50.5542L105.303 54.727ZM100.31 54.6557L105.303 54.727L105.372 50.5542L100.378 50.4829L100.31 54.6557ZM101.781 53.2291C101.768 54.0284 101.109 54.6671 100.31 54.6557L100.378 50.4829C98.8731 50.4614 97.6328 51.6643 97.6082 53.1695L101.781 53.2291ZM100.358 51.7612C101.157 51.7727 101.794 52.4299 101.781 53.2291L97.6082 53.1695C97.5836 54.6748 98.7839 55.9125 100.289 55.934L100.358 51.7612ZM105.351 51.8326L100.358 51.7612L100.289 55.934L105.282 56.0054L105.351 51.8326ZM113.061 59.7835C113.132 55.4542 109.68 51.8944 105.351 51.8326L105.282 56.0054C107.307 56.0343 108.922 57.6991 108.889 59.7239L113.061 59.7835ZM112.829 73.9603L113.061 59.7835L108.889 59.7239L108.656 73.9007L112.829 73.9603ZM104.862 81.6872C109.191 81.7491 112.759 78.2896 112.829 73.9603L108.656 73.9007C108.623 75.9254 106.955 77.5433 104.93 77.5144L104.862 81.6872ZM74.5532 81.2542L104.862 81.6872L104.93 77.5144L74.6215 77.0814L74.5532 81.2542ZM75.993 80.1031C75.8522 80.7685 75.2597 81.2643 74.5532 81.2542L74.6215 77.0814C73.293 77.0625 72.175 77.995 71.91 79.2473L75.993 80.1031ZM75.9697 79.9827C75.966 80.2051 75.9108 80.4207 75.8138 80.6128L72.0893 78.7376C71.9077 79.097 71.8036 79.5009 71.7967 79.9231L75.9697 79.9827ZM75.5742 104.14L75.9697 79.9827L71.7967 79.9231L71.4013 104.08L75.5742 104.14ZM67.6067 111.867C71.9362 111.929 75.5034 108.469 75.5742 104.14L71.4013 104.08C71.3682 106.105 69.6999 107.723 67.675 107.694L67.6067 111.867ZM57.7629 111.726L67.6067 111.867L67.675 107.694L57.8312 107.554L57.7629 111.726ZM47.9191 111.586L57.7629 111.726L57.8312 107.554L47.9874 107.413L47.9191 111.586ZM40.2082 103.635C40.1374 107.964 43.5896 111.524 47.9191 111.586L47.9874 107.413C45.9626 107.384 44.348 105.719 44.3811 103.694L40.2082 103.635ZM40.6037 79.4775L40.2082 103.635L44.3811 103.694L44.7766 79.5371L40.6037 79.4775ZM42.0272 80.9454C41.2279 80.934 40.5906 80.2768 40.6037 79.4775L44.7766 79.5371C44.8012 78.0318 43.6009 76.7941 42.0955 76.7726L42.0272 80.9454ZM42.2465 80.9318C42.1739 80.9419 42.1005 80.9465 42.0272 80.9454L42.0955 76.7726C41.9557 76.7706 41.8168 76.7794 41.6802 76.7984L42.2465 80.9318ZM41.5052 80.7821C41.1352 80.7768 40.7956 80.6304 40.5446 80.3982L43.3821 77.332C42.9081 76.8935 42.2715 76.6193 41.5735 76.6093L41.5052 80.7821ZM14.5203 80.3966L41.5052 80.7821L41.5735 76.6093L14.5886 76.2238L14.5203 80.3966ZM6.80948 72.4457C6.73861 76.775 10.1909 80.3348 14.5203 80.3966L14.5886 76.2238C12.5638 76.1949 10.9493 74.5301 10.9824 72.5053L6.80948 72.4457ZM7.03873 58.4412L6.80948 72.4457L10.9824 72.5053L11.2117 58.5008L7.03873 58.4412ZM14.9566 50.7137C10.6462 50.6794 7.10928 54.1313 7.03873 58.4412L11.2117 58.5008C11.2447 56.4851 12.8988 54.8708 14.9147 54.8868L14.9566 50.7137ZM42.2146 50.9307L14.9566 50.7137L14.9147 54.8868L42.1727 55.1038L42.2146 50.9307ZM40.7527 52.3665C40.7607 51.5671 41.4153 50.9243 42.2146 50.9307L42.1727 55.1038C43.6782 55.1157 44.9109 53.9051 44.926 52.3997L40.7527 52.3665ZM40.7577 52.5016C40.7539 52.4566 40.7523 52.4115 40.7527 52.3665L44.926 52.3997C44.9268 52.3137 44.9237 52.2281 44.9165 52.1431L40.7577 52.5016ZM41.0574 51.7563C41.0659 51.2388 41.3464 50.7905 41.7505 50.5432L43.9237 54.1015C44.6896 53.6328 45.2144 52.7884 45.2304 51.8159L41.0574 51.7563ZM41.5504 21.6391L41.0574 51.7563L45.2304 51.8159L45.7234 21.6987L41.5504 21.6391Z" fill="#1A87DD"/>
</g>
<g filter="url(#filter1_d_287_3613)">
<path d="M23.6095 62.6027C23.5592 65.6755 26.0095 68.202 29.0823 68.2459C32.1552 68.2898 34.687 65.8345 34.7373 62.7617C34.7876 59.6889 32.3374 57.1624 29.2645 57.1185C26.1916 57.0746 23.6598 59.53 23.6095 62.6027ZM46.7815 62.9338L46.7644 63.977L47.5984 63.9889L47.7953 63.178L46.7815 62.9338ZM50.4033 48.0202L51.4369 47.8751L49.3894 47.776L50.4033 48.0202ZM53.8256 72.7566L52.7921 72.9017L54.8523 72.9406L53.8256 72.7566ZM57.0956 54.7125L58.1242 54.5351L56.069 54.5286L57.0956 54.7125ZM60.9555 77.3457L59.9269 77.5231L61.9926 77.4572L60.9555 77.3457ZM64.9033 41.3279L65.9434 41.2426L63.8662 41.2164L64.9033 41.3279ZM67.1341 69.2126L66.094 69.2979L66.2504 71.2517L67.784 70.0274L67.1341 69.2126ZM70.7843 66.2986L70.8014 65.2554L70.4271 65.25L70.1344 65.4838L70.7843 66.2986ZM29.1563 63.7254L46.7644 63.977L46.7985 61.8906L29.1905 61.639L29.1563 63.7254ZM47.7953 63.178L51.4172 48.2644L49.3894 47.776L45.7676 62.6895L47.7953 63.178ZM49.3698 48.1653L52.7921 72.9017L54.8592 72.6115L51.4369 47.8751L49.3698 48.1653ZM54.8523 72.9406L58.1223 54.8965L56.069 54.5286L52.799 72.5727L54.8523 72.9406ZM56.0671 54.89L59.9269 77.5231L61.984 77.1682L58.1242 54.5351L56.0671 54.89ZM61.9926 77.4572L65.9405 41.4394L63.8662 41.2164L59.9183 77.2341L61.9926 77.4572ZM63.8633 41.4133L66.094 69.2979L68.1741 69.1272L65.9434 41.2426L63.8633 41.4133ZM67.784 70.0274L71.4342 67.1134L70.1344 65.4838L66.4842 68.3978L67.784 70.0274ZM70.7672 67.3418L80.7718 67.4847L80.8059 65.3983L70.8014 65.2554L70.7672 67.3418Z" fill="#ED6557"/>
</g>
<g filter="url(#filter2_d_287_3613)">
<path d="M103.745 14.204L100.112 17.579L102.303 18.4681L104.638 16.492L124.091 26.1139C124.091 26.1139 119.43 29.4981 116.547 31.7529C109.944 36.9155 106.552 39.7346 100.71 45.3637L100.567 45.5019C98.0139 47.9614 94.0109 51.818 90.9428 55.5873C87.8167 59.4278 83.7692 65.7225 83.7692 65.7225C83.7692 65.7225 88.534 60.1135 91.7567 56.714C95.3712 52.9012 97.7052 50.8793 101.748 47.2624C107.818 41.8316 111.428 38.8814 118.049 33.833C121.206 31.4258 125.672 28.2481 128.327 26.3771C129.329 25.6706 129.139 24.1887 127.98 23.6829L105.593 13.9137C104.964 13.6391 104.229 13.7545 103.745 14.204Z" fill="#F5964E"/>
<path d="M93.1802 16.466L89.6529 19.82L91.965 20.57L94.1161 18.6463L113.507 28.1816L108.234 32.8299C108.234 32.8299 94.6895 44.8953 89.2983 53.0285C83.0504 62.454 81.4447 67.1242 81.4447 67.1242C81.4447 67.1242 87.3392 57.3626 92.3796 51.7799C100.186 43.1334 109.893 35.1267 109.893 35.1267L117.985 28.5514C118.894 27.813 118.661 26.4165 117.549 25.9337L95.0382 16.1619C94.403 15.8862 93.6624 16.0075 93.1802 16.466Z" fill="#ED6557"/>
<path d="M68.5177 35.9505C68.0571 36.6915 65.5792 42.9114 65.5792 42.9114C65.5792 42.9114 69.9029 35.7772 72.413 32.612C76.8137 27.0628 83.8799 21.221 83.8799 21.221L103.163 30.7609C103.163 30.7609 95.377 37.7504 92.5058 41.8939C90.7963 44.3609 86.7411 50.3841 83.6057 56.8385C81.2658 61.6552 79.0392 69.0513 79.0392 69.0513C79.0392 69.0513 82.9064 60.5084 86.4187 55.0652C91.0611 47.8706 94.0318 43.6572 100.936 37.0212C102.921 35.1128 105.826 32.659 107.731 31.0826C108.631 30.3381 108.405 28.9409 107.299 28.4505L84.897 18.5144C84.3137 18.2557 83.6365 18.331 83.1671 18.7292C80.9362 20.6222 74.2921 26.6603 68.5177 35.9505Z" fill="#F5964E"/>
</g>
<defs>
<filter id="filter0_d_287_3613" x="0.313583" y="9.50283" width="119.244" height="110.947" filterUnits="userSpaceOnUse" color-interpolation-filters="sRGB">
<feFlood flood-opacity="0" result="BackgroundImageFix"/>
<feColorMatrix in="SourceAlpha" type="matrix" values="0 0 0 0 0 0 0 0 0 0 0 0 0 0 0 0 0 0 127 0" result="hardAlpha"/>
<feOffset dy="2.08668"/>
<feGaussianBlur stdDeviation="2.60835"/>
<feComposite in2="hardAlpha" operator="out"/>
<feColorMatrix type="matrix" values="0 0 0 0 0.00784321 0 0 0 0 0 0 0 0 0 0.4 0 0 0 0.24 0"/>
<feBlend mode="normal" in2="BackgroundImageFix" result="effect1_dropShadow_287_3613"/>
<feBlend mode="normal" in="SourceGraphic" in2="effect1_dropShadow_287_3613" result="shape"/>
</filter>
<filter id="filter1_d_287_3613" x="19.435" y="41.2164" width="65.544" height="44.6534" filterUnits="userSpaceOnUse" color-interpolation-filters="sRGB">
<feFlood flood-opacity="0" result="BackgroundImageFix"/>
<feColorMatrix in="SourceAlpha" type="matrix" values="0 0 0 0 0 0 0 0 0 0 0 0 0 0 0 0 0 0 127 0" result="hardAlpha"/>
<feOffset dy="4.17335"/>
<feGaussianBlur stdDeviation="2.08668"/>
<feComposite in2="hardAlpha" operator="out"/>
<feColorMatrix type="matrix" values="0 0 0 0 0 0 0 0 0 0 0 0 0 0 0 0 0 0 0.25 0"/>
<feBlend mode="normal" in2="BackgroundImageFix" result="effect1_dropShadow_287_3613"/>
<feBlend mode="normal" in="SourceGraphic" in2="effect1_dropShadow_287_3613" result="shape"/>
</filter>
<filter id="filter2_d_287_3613" x="61.4057" y="13.7662" width="71.7442" height="63.6318" filterUnits="userSpaceOnUse" color-interpolation-filters="sRGB">
<feFlood flood-opacity="0" result="BackgroundImageFix"/>
<feColorMatrix in="SourceAlpha" type="matrix" values="0 0 0 0 0 0 0 0 0 0 0 0 0 0 0 0 0 0 127 0" result="hardAlpha"/>
<feOffset dy="4.17335"/>
<feGaussianBlur stdDeviation="2.08668"/>
<feComposite in2="hardAlpha" operator="out"/>
<feColorMatrix type="matrix" values="0 0 0 0 0.00784321 0 0 0 0 0 0 0 0 0 0.4 0 0 0 0.08 0"/>
<feBlend mode="normal" in2="BackgroundImageFix" result="effect1_dropShadow_287_3613"/>
<feBlend mode="normal" in="SourceGraphic" in2="effect1_dropShadow_287_3613" result="shape"/>
</filter>
</defs>
</svg>
