<svg width="795" height="188" viewBox="0 0 795 188" fill="none" xmlns="http://www.w3.org/2000/svg">
<g filter="url(#filter0_d_2001_18601)">
<path fill-rule="evenodd" clip-rule="evenodd" d="M67.0569 35.9328C67.1365 31.0717 71.1418 27.1873 76.0031 27.2567L83.8674 27.3691L107.345 27.7045C111.533 27.7643 114.873 31.2082 114.805 35.3966C114.796 35.9367 115.226 36.3808 115.767 36.3886C116.307 36.3963 116.752 35.9647 116.761 35.4246C116.847 30.1559 112.646 25.8238 107.377 25.7485L83.8994 25.4131L76.0351 25.3008C70.0936 25.2159 65.1982 29.9635 65.1009 35.9048L64.3474 81.9378L23.1619 81.6101C17.2464 81.563 12.3926 86.3001 12.2958 92.2149L11.945 113.643C11.8477 119.584 16.5855 124.469 22.527 124.554L63.6402 125.142L63.0472 161.364C62.95 167.306 67.6877 172.191 73.6292 172.276L88.691 172.491L103.753 172.706C109.694 172.791 114.59 168.043 114.687 162.102L115.28 125.879L160.756 126.529C166.698 126.614 171.593 121.866 171.69 115.925L172.045 94.2333C172.143 88.292 167.405 83.4068 161.463 83.3219L153.824 83.2127C153.284 83.205 152.838 83.6366 152.83 84.1767C152.821 84.7169 153.252 85.161 153.792 85.1687L161.431 85.2778C166.293 85.3473 170.169 89.3443 170.089 94.2054L169.734 115.897C169.655 120.758 165.649 124.642 160.788 124.573L114.414 123.91C113.938 123.904 113.536 124.237 113.441 124.686C113.376 124.814 113.338 124.958 113.336 125.112L112.731 162.074C112.651 166.935 108.646 170.82 103.785 170.75L88.723 170.535L73.6612 170.32C68.8 170.25 64.9237 166.253 65.0032 161.392L65.6083 124.43C65.6171 123.89 65.1864 123.446 64.6463 123.438C64.5954 123.437 64.5454 123.44 64.4965 123.447C64.3259 123.289 64.0986 123.192 63.8478 123.188L22.559 122.598C17.6978 122.529 13.8214 118.532 13.901 113.671L14.2518 92.2428C14.331 87.4035 18.3023 83.5276 23.1422 83.5662L64.849 83.8981C65.3892 83.9024 65.8315 83.468 65.8369 82.9278C65.8372 82.8964 65.836 82.8653 65.8334 82.8347C66.1101 82.6653 66.2969 82.3623 66.3026 82.0143L67.0569 35.9328Z" fill="#1A87DD"/>
<path d="M76.0031 27.2567L75.9508 30.4491L76.0031 27.2567ZM83.8674 27.3691L83.9197 24.1767L83.8674 27.3691ZM107.345 27.7045L107.292 30.8968L107.345 27.7045ZM107.377 25.7485L107.429 22.5562L107.377 25.7485ZM83.8994 25.4131L83.8472 28.6055L83.8994 25.4131ZM64.3474 81.9378L64.3153 85.1304L67.4879 85.1556L67.5398 81.9834L64.3474 81.9378ZM23.1619 81.6101L23.1939 78.4175L23.1939 78.4175L23.1619 81.6101ZM12.2958 92.2149L15.4882 92.2605L12.2958 92.2149ZM11.945 113.643L8.75256 113.597L11.945 113.643ZM63.6402 125.142L66.8326 125.187L66.8849 121.995L63.6924 121.949L63.6402 125.142ZM63.0472 161.364L66.2397 161.41L66.2397 161.41L63.0472 161.364ZM73.6292 172.276L73.6815 169.083L73.6292 172.276ZM88.691 172.491L88.6387 175.683L88.691 172.491ZM103.753 172.706L103.805 169.514L103.753 172.706ZM114.687 162.102L117.879 162.148L117.879 162.148L114.687 162.102ZM115.28 125.879L115.332 122.687L112.14 122.641L112.087 125.834L115.28 125.879ZM113.441 124.686L116.289 126.123L116.477 125.751L116.564 125.344L113.441 124.686ZM113.336 125.112L110.144 125.066L110.144 125.066L113.336 125.112ZM112.731 162.074L115.923 162.12L115.923 162.12L112.731 162.074ZM103.785 170.75L103.837 167.558L103.785 170.75ZM88.723 170.535L88.6707 173.727L88.723 170.535ZM65.0032 161.392L61.8108 161.347L61.8108 161.347L65.0032 161.392ZM65.6083 124.43L62.4158 124.384L62.4158 124.384L65.6083 124.43ZM64.4965 123.447L62.326 125.793L63.4334 126.817L64.9294 126.609L64.4965 123.447ZM23.1422 83.5662L23.1743 80.3736L23.1743 80.3736L23.1422 83.5662ZM64.849 83.8981L64.8169 87.0906L64.8169 87.0906L64.849 83.8981ZM65.8369 82.9278L62.6442 82.9024L62.6442 82.9024L65.8369 82.9278ZM65.8334 82.8347L64.1701 80.113L62.4862 81.1441L62.6519 83.1094L65.8334 82.8347ZM76.0553 24.0644C69.431 23.9697 63.9729 29.263 63.8645 35.8872L70.2494 35.9784C70.3001 32.8804 72.8527 30.4048 75.9508 30.4491L76.0553 24.0644ZM83.9197 24.1767L76.0553 24.0644L75.9508 30.4491L83.8152 30.5614L83.9197 24.1767ZM107.397 24.5121L83.9197 24.1767L83.8152 30.5614L107.292 30.8968L107.397 24.5121ZM117.997 35.4422C118.094 29.4907 113.349 24.5971 107.397 24.5121L107.292 30.8968C109.718 30.9314 111.652 32.9257 111.612 35.351L117.997 35.4422ZM115.819 33.1962C117.042 33.2137 118.017 34.2193 117.997 35.4422L111.612 35.351C111.574 37.6542 113.411 39.548 115.714 39.5809L115.819 33.1962ZM113.568 35.3789C113.588 34.156 114.596 33.1787 115.819 33.1962L115.714 39.5809C118.018 39.6138 119.915 37.7734 119.953 35.4702L113.568 35.3789ZM107.324 28.9408C110.83 28.9909 113.626 31.8734 113.568 35.3789L119.953 35.4702C120.068 28.4384 114.461 22.6566 107.429 22.5562L107.324 28.9408ZM83.8472 28.6055L107.324 28.9408L107.429 22.5562L83.9517 22.2208L83.8472 28.6055ZM75.9828 28.4931L83.8472 28.6055L83.9517 22.2208L76.0874 22.1084L75.9828 28.4931ZM68.2934 35.9504C68.3618 31.7722 71.8045 28.4334 75.9828 28.4931L76.0874 22.1084C68.3827 21.9984 62.0346 28.1548 61.9085 35.8592L68.2934 35.9504ZM67.5398 81.9834L68.2934 35.9504L61.9085 35.8592L61.1549 81.8922L67.5398 81.9834ZM23.1298 84.8026L64.3153 85.1304L64.3794 78.7453L23.1939 78.4175L23.1298 84.8026ZM15.4882 92.2605C15.5563 88.1009 18.9698 84.7695 23.1298 84.8026L23.1939 78.4175C15.5231 78.3565 9.22888 84.4993 9.10332 92.1693L15.4882 92.2605ZM15.1374 113.688L15.4882 92.2605L9.10332 92.1693L8.75256 113.597L15.1374 113.688ZM22.5792 121.362C18.4009 121.302 15.069 117.867 15.1374 113.688L8.75256 113.597C8.62644 121.302 14.7701 127.636 22.4747 127.747L22.5792 121.362ZM63.6924 121.949L22.5792 121.362L22.4747 127.747L63.5879 128.334L63.6924 121.949ZM66.2397 161.41L66.8326 125.187L60.4477 125.096L59.8548 161.319L66.2397 161.41ZM73.6815 169.083C69.5031 169.024 66.1713 165.588 66.2397 161.41L59.8548 161.319C59.7287 169.023 65.8723 175.358 73.5769 175.468L73.6815 169.083ZM88.7432 169.299L73.6815 169.083L73.5769 175.468L88.6387 175.683L88.7432 169.299ZM103.805 169.514L88.7432 169.299L88.6387 175.683L103.701 175.898L103.805 169.514ZM111.495 162.056C111.426 166.235 107.983 169.573 103.805 169.514L103.701 175.898C111.405 176.009 117.753 169.852 117.879 162.148L111.495 162.056ZM112.087 125.834L111.495 162.056L117.879 162.148L118.472 125.925L112.087 125.834ZM160.808 123.337L115.332 122.687L115.228 129.072L160.704 129.721L160.808 123.337ZM168.498 115.879C168.429 120.057 164.987 123.396 160.808 123.337L160.704 129.721C168.409 129.831 174.757 123.675 174.883 115.97L168.498 115.879ZM168.853 94.1877L168.498 115.879L174.883 115.97L175.238 94.2789L168.853 94.1877ZM161.411 86.5142C165.59 86.5739 168.921 90.0094 168.853 94.1877L175.238 94.2789C175.364 86.5745 169.22 80.2396 161.516 80.1295L161.411 86.5142ZM153.771 86.4051L161.411 86.5142L161.516 80.1295L153.876 80.0204L153.771 86.4051ZM156.022 84.2223C156.002 85.4453 154.994 86.4225 153.771 86.4051L153.876 80.0204C151.573 79.9875 149.675 81.828 149.637 84.1311L156.022 84.2223ZM153.844 81.9764C155.067 81.9938 156.042 82.9994 156.022 84.2223L149.637 84.1311C149.6 86.4343 151.436 88.3281 153.739 88.361L153.844 81.9764ZM161.484 82.0855L153.844 81.9764L153.739 88.361L161.379 88.4702L161.484 82.0855ZM173.282 94.251C173.39 87.6268 168.108 82.1801 161.484 82.0855L161.379 88.4702C164.477 88.5144 166.948 91.0617 166.897 94.1598L173.282 94.251ZM172.927 115.942L173.282 94.251L166.897 94.1598L166.542 115.851L172.927 115.942ZM160.736 127.765C167.36 127.86 172.818 122.567 172.927 115.942L166.542 115.851C166.491 118.949 163.939 121.425 160.84 121.381L160.736 127.765ZM114.361 127.103L160.736 127.765L160.84 121.381L114.466 120.718L114.361 127.103ZM116.564 125.344C116.348 126.361 115.442 127.118 114.361 127.103L114.466 120.718C112.435 120.689 110.725 122.114 110.318 124.028L116.564 125.344ZM116.528 125.157C116.523 125.498 116.438 125.829 116.289 126.123L110.593 123.248C110.314 123.799 110.154 124.419 110.144 125.066L116.528 125.157ZM115.923 162.12L116.528 125.157L110.144 125.066L109.538 162.029L115.923 162.12ZM103.733 173.943C110.357 174.037 115.815 168.744 115.923 162.12L109.538 162.029C109.488 165.127 106.935 167.602 103.837 167.558L103.733 173.943ZM88.6707 173.727L103.733 173.943L103.837 167.558L88.7753 167.343L88.6707 173.727ZM73.609 173.512L88.6707 173.727L88.7753 167.343L73.7135 167.128L73.609 173.512ZM61.8108 161.347C61.7024 167.971 66.9846 173.418 73.609 173.512L73.7135 167.128C70.6154 167.083 68.145 164.536 68.1957 161.438L61.8108 161.347ZM62.4158 124.384L61.8108 161.347L68.1957 161.438L68.8007 124.475L62.4158 124.384ZM64.594 126.63C63.371 126.613 62.3958 125.607 62.4158 124.384L68.8007 124.475C68.8384 122.172 67.0018 120.278 64.6985 120.246L64.594 126.63ZM64.9294 126.609C64.8179 126.625 64.7058 126.632 64.594 126.63L64.6985 120.246C64.485 120.242 64.2728 120.256 64.0636 120.285L64.9294 126.609ZM63.7955 126.38C63.2295 126.372 62.7101 126.148 62.326 125.793L66.6669 121.101C65.9416 120.43 64.9677 120.011 63.9 119.996L63.7955 126.38ZM22.5067 125.791L63.7955 126.38L63.9 119.996L22.6113 119.406L22.5067 125.791ZM10.7086 113.625C10.6001 120.249 15.8824 125.696 22.5067 125.791L22.6113 119.406C19.5131 119.362 17.0427 116.814 17.0935 113.716L10.7086 113.625ZM11.0593 92.1972L10.7086 113.625L17.0935 113.716L17.4442 92.2884L11.0593 92.1972ZM23.1743 80.3736C16.579 80.3211 11.1673 85.6027 11.0593 92.1972L17.4442 92.2884C17.4947 89.2043 20.0257 86.7342 23.1102 86.7587L23.1743 80.3736ZM64.881 80.7055L23.1743 80.3736L23.1102 86.7587L64.8169 87.0906L64.881 80.7055ZM62.6442 82.9024C62.6565 81.6793 63.6579 80.6958 64.881 80.7055L64.8169 87.0906C67.1204 87.109 69.0065 85.2566 69.0296 82.9532L62.6442 82.9024ZM62.6519 83.1094C62.6461 83.0406 62.6435 82.9715 62.6442 82.9024L69.0296 82.9532C69.0309 82.8213 69.026 82.6901 69.015 82.56L62.6519 83.1094ZM63.1102 81.9686C63.1231 81.1772 63.552 80.4914 64.1701 80.113L67.4968 85.5564C68.6682 84.8391 69.4707 83.5474 69.495 82.0599L63.1102 81.9686ZM63.8645 35.8872L63.1102 81.9686L69.495 82.0599L70.2494 35.9784L63.8645 35.8872Z" fill="#1A87DD"/>
</g>
<g filter="url(#filter1_d_2001_18601)">
<path d="M36.4134 98.5644C36.3365 103.266 40.0856 107.132 44.7873 107.199C49.489 107.266 53.3628 103.509 53.4398 98.8077C53.5168 94.1061 49.7677 90.2403 45.066 90.1731C40.3643 90.106 36.4904 93.8629 36.4134 98.5644ZM71.8682 99.0709L71.8421 100.667L73.1182 100.685L73.4195 99.4446L71.8682 99.0709ZM77.4099 76.2521L78.9913 76.0302L75.8586 75.8785L77.4099 76.2521ZM82.6463 114.101L81.0649 114.323L84.2171 114.382L82.6463 114.101ZM87.6496 86.4919L89.2234 86.2203L86.0788 86.2104L87.6496 86.4919ZM93.5555 121.122L91.9818 121.394L95.1424 121.293L93.5555 121.122ZM99.596 66.0124L101.187 65.8818L98.0091 65.8418L99.596 66.0124ZM103.009 108.678L101.418 108.809L101.657 111.798L104.004 109.925L103.009 108.678ZM108.594 104.219L108.62 102.623L108.048 102.615L107.6 102.973L108.594 104.219ZM44.9005 100.282L71.8421 100.667L71.8943 97.4748L44.9527 97.0899L44.9005 100.282ZM73.4195 99.4446L78.9612 76.6258L75.8586 75.8785L70.3169 98.6973L73.4195 99.4446ZM75.8285 76.4741L81.0649 114.323L84.2277 113.879L78.9913 76.0302L75.8285 76.4741ZM84.2171 114.382L89.2205 86.7733L86.0788 86.2104L81.0755 113.819L84.2171 114.382ZM86.0759 86.7634L91.9818 121.394L95.1292 120.851L89.2234 86.2203L86.0759 86.7634ZM95.1424 121.293L101.183 66.1831L98.0091 65.8418L91.9686 120.952L95.1424 121.293ZM98.0046 66.143L101.418 108.809L104.601 108.547L101.187 65.8818L98.0046 66.143ZM104.004 109.925L109.589 105.466L107.6 102.973L102.015 107.431L104.004 109.925ZM108.568 105.816L123.876 106.034L123.928 102.842L108.62 102.623L108.568 105.816Z" fill="#ED6557"/>
</g>
<g filter="url(#filter2_d_2001_18601)">
<path d="M159.027 24.511L153.468 29.675L156.821 31.0354L160.393 28.0117L190.158 42.7341C190.158 42.7341 183.026 47.9121 178.614 51.3621C168.511 59.2612 163.322 63.5747 154.383 72.1877L154.163 72.3992C150.257 76.1624 144.133 82.0633 139.438 87.8304C134.655 93.7068 128.462 103.338 128.462 103.338C128.462 103.338 135.752 94.7559 140.683 89.5544C146.214 83.7205 149.785 80.6269 155.971 75.0928C165.258 66.7833 170.782 62.2693 180.913 54.5448C185.743 50.8615 192.576 45.9995 196.638 43.1368C198.172 42.0557 197.882 39.7883 196.108 39.0143L161.854 24.0669C160.892 23.6467 159.768 23.8232 159.027 24.511Z" fill="#F5964E"/>
<path d="M142.862 27.972L137.465 33.1038L141.003 34.2513L144.294 31.3079L173.963 45.8976L165.895 53.0099C165.895 53.0099 145.172 71.4709 136.923 83.9152C127.363 98.337 124.906 105.483 124.906 105.483C124.906 105.483 133.925 90.5468 141.637 82.0047C153.582 68.775 168.434 56.5242 168.434 56.5242L180.816 46.4634C182.206 45.3337 181.85 43.1968 180.148 42.4581L145.705 27.5067C144.733 27.0848 143.6 27.2703 142.862 27.972Z" fill="#ED6557"/>
<path d="M105.126 57.7846C104.422 58.9184 100.63 68.4353 100.63 68.4353C100.63 68.4353 107.246 57.5194 111.086 52.6765C117.82 44.1859 128.632 35.2474 128.632 35.2474L158.136 49.8442C158.136 49.8442 146.223 60.5387 141.83 66.8785C139.214 70.6532 133.009 79.8692 128.212 89.7448C124.632 97.1148 121.225 108.431 121.225 108.431C121.225 108.431 127.142 95.3601 132.516 87.0316C139.619 76.0232 144.165 69.5765 154.728 59.423C157.766 56.5029 162.211 52.7484 165.126 50.3364C166.502 49.1972 166.157 47.0595 164.465 46.3091L130.188 31.1061C129.295 30.7103 128.259 30.8255 127.541 31.4349C124.128 34.3313 113.962 43.5699 105.126 57.7846Z" fill="#F5964E"/>
</g>
<path d="M329.854 37.0998V136H305.763V76.6881L283.645 136H264.203L241.943 76.5472V136H217.852V37.0998H246.31L274.064 105.569L301.537 37.0998H329.854ZM421.283 95.4256C421.283 97.6797 421.142 100.028 420.861 102.47H366.339C366.714 107.354 368.264 111.111 370.988 113.74C373.806 116.276 377.234 117.544 381.272 117.544C387.283 117.544 391.463 115.008 393.811 109.937H419.452C418.137 115.102 415.742 119.751 412.267 123.884C408.886 128.017 404.612 131.257 399.446 133.605C394.281 135.953 388.504 137.127 382.118 137.127C374.416 137.127 367.56 135.483 361.549 132.196C355.538 128.909 350.842 124.213 347.46 118.108C344.079 112.003 342.389 104.865 342.389 96.6935C342.389 88.5223 344.032 81.3842 347.319 75.2792C350.701 69.1743 355.397 64.4782 361.408 61.1909C367.419 57.9036 374.322 56.26 382.118 56.26C389.725 56.26 396.488 57.8566 402.405 61.05C408.322 64.2434 412.924 68.7986 416.211 74.7157C419.593 80.6328 421.283 87.5361 421.283 95.4256ZM396.629 89.0858C396.629 84.9532 395.22 81.6659 392.402 79.224C389.584 76.782 386.062 75.561 381.836 75.561C377.797 75.561 374.369 76.735 371.551 79.0831C368.828 81.4311 367.137 84.7654 366.48 89.0858H396.629ZM429.202 96.5526C429.202 88.4753 430.705 81.3842 433.711 75.2792C436.81 69.1743 440.99 64.4782 446.249 61.1909C451.509 57.9036 457.379 56.26 463.86 56.26C469.026 56.26 473.722 57.3401 477.948 59.5003C482.269 61.6605 485.65 64.5721 488.092 68.2351V31.7462H512.183V136H488.092V124.729C485.838 128.486 482.597 131.492 478.371 133.746C474.238 136 469.401 137.127 463.86 137.127C457.379 137.127 451.509 135.483 446.249 132.196C440.99 128.815 436.81 124.072 433.711 117.967C430.705 111.768 429.202 104.63 429.202 96.5526ZM488.092 96.6935C488.092 90.6825 486.401 85.9394 483.02 82.4643C479.733 78.9892 475.694 77.2516 470.904 77.2516C466.114 77.2516 462.028 78.9892 458.647 82.4643C455.36 85.8455 453.716 90.5416 453.716 96.5526C453.716 102.564 455.36 107.354 458.647 110.923C462.028 114.398 466.114 116.135 470.904 116.135C475.694 116.135 479.733 114.398 483.02 110.923C486.401 107.448 488.092 102.705 488.092 96.6935ZM604.984 68.9395C604.984 74.6687 603.669 79.9284 601.04 84.7184C598.41 89.4145 594.371 93.2184 588.924 96.13C583.476 99.0416 576.714 100.497 568.636 100.497H553.703V136H529.612V37.0998H568.636C576.526 37.0998 583.194 38.4617 588.642 41.1854C594.089 43.9092 598.175 47.6661 600.899 52.4561C603.622 57.2461 604.984 62.7406 604.984 68.9395ZM566.805 81.3372C571.407 81.3372 574.835 80.2571 577.089 78.0969C579.343 75.9367 580.471 72.8842 580.471 68.9395C580.471 64.9947 579.343 61.9423 577.089 59.7821C574.835 57.6218 571.407 56.5417 566.805 56.5417H553.703V81.3372H566.805ZM612.736 96.5526C612.736 88.4753 614.239 81.3842 617.244 75.2792C620.344 69.1743 624.523 64.4782 629.783 61.1909C635.043 57.9036 640.913 56.26 647.394 56.26C652.935 56.26 657.772 57.387 661.905 59.6412C666.131 61.8953 669.371 64.8539 671.625 68.5168V57.387H695.717V136H671.625V124.87C669.277 128.533 665.99 131.492 661.764 133.746C657.631 136 652.794 137.127 647.253 137.127C640.866 137.127 635.043 135.483 629.783 132.196C624.523 128.815 620.344 124.072 617.244 117.967C614.239 111.768 612.736 104.63 612.736 96.5526ZM671.625 96.6935C671.625 90.6825 669.935 85.9394 666.554 82.4643C663.266 78.9892 659.228 77.2516 654.438 77.2516C649.648 77.2516 645.562 78.9892 642.181 82.4643C638.894 85.8455 637.25 90.5416 637.25 96.5526C637.25 102.564 638.894 107.354 642.181 110.923C645.562 114.398 649.648 116.135 654.438 116.135C659.228 116.135 663.266 114.398 666.554 110.923C669.935 107.448 671.625 102.705 671.625 96.6935ZM793.449 57.387L744.14 173.334H718.217L736.25 133.323L704.27 57.387H731.178L749.352 106.555L767.385 57.387H793.449Z" fill="#1A87DD"/>
<defs>
<filter id="filter0_d_2001_18601" x="0.76857" y="17.3178" width="182.453" height="169.757" filterUnits="userSpaceOnUse" color-interpolation-filters="sRGB">
<feFlood flood-opacity="0" result="BackgroundImageFix"/>
<feColorMatrix in="SourceAlpha" type="matrix" values="0 0 0 0 0 0 0 0 0 0 0 0 0 0 0 0 0 0 127 0" result="hardAlpha"/>
<feOffset dy="3.19277"/>
<feGaussianBlur stdDeviation="3.99096"/>
<feComposite in2="hardAlpha" operator="out"/>
<feColorMatrix type="matrix" values="0 0 0 0 0.00784321 0 0 0 0 0 0 0 0 0 0.4 0 0 0 0.24 0"/>
<feBlend mode="normal" in2="BackgroundImageFix" result="effect1_dropShadow_2001_18601"/>
<feBlend mode="normal" in="SourceGraphic" in2="effect1_dropShadow_2001_18601" result="shape"/>
</filter>
<filter id="filter1_d_2001_18601" x="30.0266" y="65.8418" width="100.287" height="68.323" filterUnits="userSpaceOnUse" color-interpolation-filters="sRGB">
<feFlood flood-opacity="0" result="BackgroundImageFix"/>
<feColorMatrix in="SourceAlpha" type="matrix" values="0 0 0 0 0 0 0 0 0 0 0 0 0 0 0 0 0 0 127 0" result="hardAlpha"/>
<feOffset dy="6.38553"/>
<feGaussianBlur stdDeviation="3.19277"/>
<feComposite in2="hardAlpha" operator="out"/>
<feColorMatrix type="matrix" values="0 0 0 0 0 0 0 0 0 0 0 0 0 0 0 0 0 0 0.25 0"/>
<feBlend mode="normal" in2="BackgroundImageFix" result="effect1_dropShadow_2001_18601"/>
<feBlend mode="normal" in="SourceGraphic" in2="effect1_dropShadow_2001_18601" result="shape"/>
</filter>
<filter id="filter2_d_2001_18601" x="94.2448" y="23.8411" width="109.774" height="97.3613" filterUnits="userSpaceOnUse" color-interpolation-filters="sRGB">
<feFlood flood-opacity="0" result="BackgroundImageFix"/>
<feColorMatrix in="SourceAlpha" type="matrix" values="0 0 0 0 0 0 0 0 0 0 0 0 0 0 0 0 0 0 127 0" result="hardAlpha"/>
<feOffset dy="6.38553"/>
<feGaussianBlur stdDeviation="3.19277"/>
<feComposite in2="hardAlpha" operator="out"/>
<feColorMatrix type="matrix" values="0 0 0 0 0.00784321 0 0 0 0 0 0 0 0 0 0.4 0 0 0 0.08 0"/>
<feBlend mode="normal" in2="BackgroundImageFix" result="effect1_dropShadow_2001_18601"/>
<feBlend mode="normal" in="SourceGraphic" in2="effect1_dropShadow_2001_18601" result="shape"/>
</filter>
</defs>
</svg>
