<svg width="348" height="301" viewBox="0 0 348 301" fill="none" xmlns="http://www.w3.org/2000/svg">
<path fill-rule="evenodd" clip-rule="evenodd" d="M101.42 57.6698C101.559 49.2248 108.517 42.4765 116.962 42.5972L130.625 42.7923L171.411 43.375C178.688 43.479 184.491 49.462 184.371 56.7384C184.356 57.6767 185.104 58.4483 186.043 58.4617C186.981 58.4751 187.754 57.7253 187.77 56.787C187.919 47.6338 180.621 40.1077 171.467 39.977L130.681 39.3943L117.018 39.1991C106.696 39.0517 98.1913 47.2996 98.0223 57.6213L96.7132 137.593L25.1625 137.024C14.8857 136.942 6.45321 145.172 6.28501 155.447L5.67563 192.674C5.50667 202.995 13.7374 211.482 24.0595 211.63L95.4846 212.65L94.4545 275.579C94.2855 285.901 102.516 294.388 112.838 294.536L139.005 294.909L165.171 295.283C175.493 295.431 183.998 287.183 184.167 276.861L185.197 213.932L264.202 215.06C274.524 215.208 283.029 206.96 283.198 196.638L283.815 158.954C283.983 148.632 275.753 140.145 265.431 139.998L252.158 139.808C251.22 139.795 250.447 140.545 250.431 141.483C250.416 142.421 251.164 143.193 252.103 143.206L265.375 143.396C273.82 143.517 280.555 150.46 280.416 158.905L279.799 196.59C279.661 205.035 272.703 211.783 264.258 211.662L183.692 210.511C182.866 210.5 182.168 211.08 182.002 211.859C181.89 212.081 181.824 212.332 181.82 212.598L180.769 276.812C180.631 285.258 173.672 292.006 165.227 291.885L139.06 291.511L112.894 291.138C104.449 291.017 97.7144 284.073 97.8526 275.628L98.9038 211.414C98.9191 210.475 98.1709 209.704 97.2325 209.691C97.1441 209.689 97.0572 209.695 96.9722 209.707C96.6758 209.433 96.281 209.263 95.8452 209.257L24.1151 208.232C15.6698 208.111 8.93553 201.167 9.07377 192.722L9.68315 155.496C9.82077 147.089 16.7201 140.355 25.1283 140.422L97.5845 140.999C98.523 141.006 99.2914 140.252 99.3008 139.313C99.3014 139.259 99.2993 139.205 99.2949 139.152C99.7755 138.857 100.1 138.331 100.11 137.726L101.42 57.6698Z" fill="white"/>
<path d="M116.962 42.5972L116.872 48.1431L116.962 42.5972ZM101.42 57.6698L106.967 57.7491L101.42 57.6698ZM130.625 42.7923L130.716 37.2464L130.625 42.7923ZM171.411 43.375L171.321 48.921L171.411 43.375ZM171.467 39.977L171.558 34.431L171.467 39.977ZM130.681 39.3943L130.59 44.9403L130.681 39.3943ZM98.0223 57.6213L92.4762 57.5421L98.0223 57.6213ZM96.7132 137.593L96.6575 143.14L102.169 143.184L102.259 137.673L96.7132 137.593ZM25.1625 137.024L25.2181 131.478L25.2181 131.478L25.1625 137.024ZM24.0595 211.63L24.1503 206.084L24.0595 211.63ZM95.4846 212.65L101.031 212.729L101.122 207.183L95.5754 207.104L95.4846 212.65ZM94.4545 275.579L100.001 275.659L94.4545 275.579ZM112.838 294.536L112.929 288.99L112.838 294.536ZM139.005 294.909L138.914 300.455L139.005 294.909ZM184.167 276.861L189.713 276.94L184.167 276.861ZM185.197 213.932L185.288 208.386L179.742 208.307L179.651 213.853L185.197 213.932ZM283.198 196.638L288.744 196.718L283.198 196.638ZM283.815 158.954L278.268 158.875L283.815 158.954ZM265.431 139.998L265.521 134.452L265.431 139.998ZM252.158 139.808L252.068 145.354L252.158 139.808ZM252.103 143.206L252.012 148.752L252.103 143.206ZM265.375 143.396L265.466 137.85L265.375 143.396ZM280.416 158.905L274.87 158.826L280.416 158.905ZM279.799 196.59L285.346 196.669L279.799 196.59ZM182.002 211.859L186.951 214.355L187.278 213.709L187.428 213L182.002 211.859ZM181.82 212.598L176.274 212.519L181.82 212.598ZM180.769 276.812L186.315 276.892L180.769 276.812ZM139.06 291.511L138.97 297.057L139.06 291.511ZM112.894 291.138L112.985 285.592L112.894 291.138ZM97.8526 275.628L92.3065 275.549L97.8526 275.628ZM98.9038 211.414L93.3576 211.335L98.9038 211.414ZM96.9722 209.707L93.2013 213.782L95.1252 215.561L97.7242 215.2L96.9722 209.707ZM25.1283 140.422L25.184 134.876L25.1283 140.422ZM97.5845 140.999L97.5289 146.545L97.5289 146.545L97.5845 140.999ZM99.3008 139.313L93.7542 139.269L93.7542 139.269L99.3008 139.313ZM99.2949 139.152L96.4054 134.423L93.4799 136.214L93.7675 139.628L99.2949 139.152ZM100.11 137.726L94.5638 137.647L100.11 137.726ZM117.053 37.0512C105.545 36.8868 96.0627 46.0826 95.8743 57.5906L106.967 57.7491C107.055 52.367 111.489 48.0662 116.872 48.1431L117.053 37.0512ZM130.716 37.2464L117.053 37.0512L116.872 48.1431L130.534 48.3383L130.716 37.2464ZM171.502 37.829L130.716 37.2464L130.534 48.3383L171.321 48.921L171.502 37.829ZM189.918 56.8176C190.087 46.4782 181.842 37.9767 171.502 37.829L171.321 48.921C175.534 48.9812 178.894 52.4457 178.825 56.6592L189.918 56.8176ZM186.133 52.9157C188.258 52.9461 189.952 54.693 189.918 56.8176L178.825 56.6592C178.76 60.6604 181.95 63.9505 185.952 64.0077L186.133 52.9157ZM182.223 56.7077C182.258 54.5831 184.009 52.8854 186.133 52.9157L185.952 64.0077C189.953 64.0648 193.25 60.8675 193.316 56.8662L182.223 56.7077ZM171.376 45.5229C177.467 45.61 182.323 50.6175 182.223 56.7077L193.316 56.8662C193.516 44.6501 183.774 34.6055 171.558 34.431L171.376 45.5229ZM130.59 44.9403L171.376 45.5229L171.558 34.431L130.771 33.8483L130.59 44.9403ZM116.927 44.7451L130.59 44.9403L130.771 33.8483L117.109 33.6531L116.927 44.7451ZM103.568 57.7005C103.687 50.4417 109.668 44.6414 116.927 44.7451L117.109 33.6531C103.724 33.4619 92.6953 44.1574 92.4762 57.5421L103.568 57.7005ZM102.259 137.673L103.568 57.7005L92.4762 57.5421L91.1671 137.514L102.259 137.673ZM25.1068 142.57L96.6575 143.14L96.7689 132.047L25.2181 131.478L25.1068 142.57ZM11.8312 155.527C11.9495 148.3 17.8796 142.513 25.1068 142.57L25.2181 131.478C11.8917 131.372 0.95697 142.043 0.738849 155.368L11.8312 155.527ZM11.2218 192.753L11.8312 155.527L0.738849 155.368L0.129474 192.594L11.2218 192.753ZM24.1503 206.084C16.8912 205.98 11.103 200.012 11.2218 192.753L0.129474 192.594C-0.0896271 205.979 10.5836 216.985 23.9687 217.176L24.1503 206.084ZM95.5754 207.104L24.1503 206.084L23.9687 217.176L95.3938 218.196L95.5754 207.104ZM100.001 275.659L101.031 212.729L89.9384 212.571L88.9083 275.5L100.001 275.659ZM112.929 288.99C105.67 288.886 99.8818 282.917 100.001 275.659L88.9083 275.5C88.6892 288.885 99.3624 299.89 112.748 300.082L112.929 288.99ZM139.096 289.363L112.929 288.99L112.748 300.082L138.914 300.455L139.096 289.363ZM165.262 289.737L139.096 289.363L138.914 300.455L165.081 300.829L165.262 289.737ZM178.621 276.782C178.502 284.041 172.521 289.841 165.262 289.737L165.081 300.829C178.466 301.02 189.494 290.325 189.713 276.94L178.621 276.782ZM179.651 213.853L178.621 276.782L189.713 276.94L190.743 214.011L179.651 213.853ZM264.293 209.514L185.288 208.386L185.106 219.478L264.111 220.606L264.293 209.514ZM277.651 196.559C277.533 203.818 271.552 209.618 264.293 209.514L264.111 220.606C277.496 220.798 288.525 210.102 288.744 196.718L277.651 196.559ZM278.268 158.875L277.651 196.559L288.744 196.718L289.361 159.033L278.268 158.875ZM265.34 145.544C272.599 145.648 278.387 151.616 278.268 158.875L289.361 159.033C289.58 145.649 278.907 134.643 265.521 134.452L265.34 145.544ZM252.068 145.354L265.34 145.544L265.521 134.452L252.249 134.262L252.068 145.354ZM255.978 141.562C255.943 143.687 254.192 145.385 252.068 145.354L252.249 134.262C248.248 134.205 244.951 137.402 244.885 141.404L255.978 141.562ZM252.193 137.66C254.318 137.691 256.012 139.438 255.978 141.562L244.885 141.404C244.82 145.405 248.011 148.695 252.012 148.752L252.193 137.66ZM265.466 137.85L252.193 137.66L252.012 148.752L265.284 148.942L265.466 137.85ZM285.963 158.985C286.151 147.477 276.974 138.014 265.466 137.85L265.284 148.942C270.667 149.019 274.958 153.444 274.87 158.826L285.963 158.985ZM285.346 196.669L285.963 158.985L274.87 158.826L274.253 196.51L285.346 196.669ZM264.167 217.208C275.675 217.373 285.157 208.177 285.346 196.669L274.253 196.51C274.165 201.893 269.731 206.193 264.348 206.116L264.167 217.208ZM183.601 216.057L264.167 217.208L264.348 206.116L183.783 204.965L183.601 216.057ZM187.428 213C187.053 214.768 185.478 216.084 183.601 216.057L183.783 204.965C180.254 204.915 177.283 207.391 176.576 210.717L187.428 213ZM187.366 212.678C187.356 213.27 187.209 213.843 186.951 214.355L177.054 209.363C176.57 210.32 176.292 211.395 176.274 212.519L187.366 212.678ZM186.315 276.892L187.366 212.678L176.274 212.519L175.223 276.733L186.315 276.892ZM165.136 297.431C176.645 297.596 186.127 288.4 186.315 276.892L175.223 276.733C175.135 282.115 170.7 286.416 165.318 286.339L165.136 297.431ZM138.97 297.057L165.136 297.431L165.318 286.339L139.151 285.965L138.97 297.057ZM112.803 296.684L138.97 297.057L139.151 285.965L112.985 285.592L112.803 296.684ZM92.3065 275.549C92.1181 287.057 101.295 296.519 112.803 296.684L112.985 285.592C107.602 285.515 103.311 281.089 103.399 275.707L92.3065 275.549ZM93.3576 211.335L92.3065 275.549L103.399 275.707L104.45 211.493L93.3576 211.335ZM97.1417 215.237C95.017 215.206 93.3228 213.459 93.3576 211.335L104.45 211.493C104.515 207.492 101.325 204.202 97.3233 204.145L97.1417 215.237ZM97.7242 215.2C97.5312 215.227 97.3364 215.239 97.1417 215.237L97.3233 204.145C96.9518 204.139 96.5831 204.162 96.2202 204.213L97.7242 215.2ZM95.7544 214.803C94.771 214.788 93.8686 214.399 93.2013 213.782L100.743 205.631C99.4831 204.466 97.7911 203.737 95.936 203.711L95.7544 214.803ZM24.0243 213.778L95.7544 214.803L95.936 203.711L24.2059 202.686L24.0243 213.778ZM3.52761 192.643C3.33923 204.151 12.5159 213.613 24.0243 213.778L24.2059 202.686C18.8236 202.609 14.5318 198.184 14.6199 192.801L3.52761 192.643ZM4.13699 155.417L3.52761 192.643L14.6199 192.801L15.2293 155.575L4.13699 155.417ZM25.184 134.876C13.7261 134.785 4.32453 143.96 4.13699 155.417L15.2293 155.575C15.317 150.217 19.714 145.926 25.0726 145.969L25.184 134.876ZM97.6402 135.453L25.184 134.876L25.0726 145.969L97.5289 146.545L97.6402 135.453ZM93.7542 139.269C93.7755 137.144 95.5154 135.436 97.6402 135.453L97.5289 146.545C101.531 146.577 104.807 143.359 104.847 139.357L93.7542 139.269ZM93.7675 139.628C93.7575 139.509 93.753 139.389 93.7542 139.269L104.847 139.358C104.85 139.128 104.841 138.9 104.822 138.675L93.7675 139.628ZM94.5638 137.647C94.5863 136.272 95.3315 135.081 96.4054 134.423L102.184 143.88C104.22 142.634 105.614 140.39 105.656 137.805L94.5638 137.647ZM95.8743 57.5906L94.5638 137.647L105.656 137.805L106.967 57.7491L95.8743 57.5906Z" fill="white"/>
<path d="M48.1839 166.478C48.0502 174.646 54.5634 181.362 62.7315 181.479C70.8997 181.596 77.6297 175.069 77.7634 166.901C77.8971 158.733 71.3839 152.017 63.2157 151.9C55.0476 151.784 48.3176 158.31 48.1839 166.478ZM109.779 167.358L109.733 170.131L111.95 170.163L112.474 168.007L109.779 167.358ZM119.406 127.716L122.153 127.33L116.711 127.067L119.406 127.716ZM128.503 193.469L125.756 193.855L131.232 193.958L128.503 193.469ZM137.195 145.505L139.929 145.033L134.466 145.016L137.195 145.505ZM147.455 205.667L144.721 206.139L150.212 205.964L147.455 205.667ZM157.95 109.926L160.714 109.7L155.193 109.63L157.95 109.926ZM163.879 184.048L161.115 184.275L161.53 189.469L165.607 186.214L163.879 184.048ZM173.582 176.303L173.627 173.53L172.633 173.515L171.854 174.137L173.582 176.303ZM62.9282 169.463L109.733 170.131L109.824 164.585L63.019 163.917L62.9282 169.463ZM112.474 168.007L122.101 128.365L116.711 127.067L107.084 166.709L112.474 168.007ZM116.659 128.101L125.756 193.855L131.25 193.083L122.153 127.33L116.659 128.101ZM131.232 193.958L139.924 145.994L134.466 145.016L125.774 192.98L131.232 193.958ZM134.461 145.977L144.721 206.139L150.189 205.196L139.929 145.033L134.461 145.977ZM150.212 205.964L160.706 110.223L155.193 109.63L144.699 205.371L150.212 205.964ZM155.185 110.153L161.115 184.275L166.644 183.821L160.714 109.7L155.185 110.153ZM165.607 186.214L175.31 178.468L171.854 174.137L162.152 181.882L165.607 186.214ZM173.537 179.075L200.13 179.455L200.221 173.909L173.627 173.53L173.537 179.075Z" fill="#ED6557"/>
<path d="M261.198 37.827L251.54 46.7983L257.365 49.1618L263.571 43.9088L315.28 69.4855C315.28 69.4855 302.891 78.4812 295.226 84.4747C277.674 98.1978 268.659 105.692 253.13 120.655L252.749 121.022C245.963 127.56 235.322 137.811 227.167 147.83C218.857 158.039 208.098 174.771 208.098 174.771C208.098 174.771 220.764 159.862 229.33 150.825C238.938 140.69 245.142 135.316 255.888 125.702C272.023 111.266 281.62 103.424 299.22 90.0041C307.612 83.6052 319.482 75.1585 326.539 70.1851C329.204 68.3071 328.699 64.3678 325.618 63.0233L266.11 37.0554C264.437 36.3254 262.484 36.6322 261.198 37.827Z" fill="#F5964E"/>
<path d="M233.114 43.8396L223.738 52.7551L229.884 54.7485L235.602 49.6351L287.145 74.9815L273.129 87.3374C273.129 87.3374 237.126 119.409 222.795 141.029C206.187 166.083 201.919 178.497 201.919 178.497C201.919 178.497 217.588 152.549 230.986 137.71C251.737 114.726 277.539 93.4427 277.539 93.4427L299.05 75.9645C301.465 74.0018 300.847 70.2895 297.89 69.0061L238.053 43.0313C236.365 42.2984 234.396 42.6207 233.114 43.8396Z" fill="#ED6557"/>
<path d="M167.557 95.6326C166.333 97.6023 159.746 114.136 159.746 114.136C159.746 114.136 171.239 95.1719 177.912 86.7585C189.61 72.0078 208.393 56.4793 208.393 56.4793L259.651 81.8378C259.651 81.8378 238.954 100.417 231.321 111.431C226.777 117.989 215.998 134 207.664 151.156C201.444 163.96 195.525 183.62 195.525 183.62C195.525 183.62 205.805 160.912 215.141 146.443C227.481 127.318 235.378 116.118 253.73 98.4789C259.008 93.4059 266.73 86.8833 271.793 82.6929C274.185 80.7139 273.585 77.0001 270.645 75.6964L211.096 49.2847C209.546 48.597 207.746 48.7971 206.498 49.8558C200.568 54.8877 182.907 70.9377 167.557 95.6326Z" fill="#F5964E"/>
</svg>
